<?xml version="1.0" encoding="UTF-8"?>
<svg width="40px" height="40px" viewBox="0 0 40 40" version="1.1" xmlns="http://www.w3.org/2000/svg" xmlns:xlink="http://www.w3.org/1999/xlink">
    <!-- Generator: Sketch 47.1 (45422) - http://www.bohemiancoding.com/sketch -->
    <title>Group 14</title>
    <desc>Created with Sketch.</desc>
    <defs>
        <path d="M19.99996,0.86956 C30.56544,0.86956 39.13044,9.43452 39.13044,20 C39.13044,30.56552 30.56544,39.13048 19.99996,39.13048 C9.4346,39.13048 0.86956,30.56552 0.86956,20 C0.86956,9.43452 9.4346,0.86956 19.99996,0.86956 Z" id="path-1"></path>
    </defs>
    <g id="11.23" stroke="none" stroke-width="1" fill="none" fill-rule="evenodd">
        <g id="提交弹窗" transform="translate(-780.000000, -431.000000)">
            <g id="Group-14" transform="translate(780.000000, 431.000000)">
                <g id="stroke">
                    <use fill-opacity="0" fill="#000000" fill-rule="evenodd" xlink:href="#path-1"></use>
                    <path stroke="#8E8E93" stroke-width="0.869565217" d="M19.99996,1.30434261 C9.67468985,1.30434261 1.30434261,9.67467776 1.30434261,20 C1.30434261,30.3253562 9.6746838,38.6956974 19.99996,38.6956974 C30.3253302,38.6956974 38.6956574,30.3253822 38.6956574,20 C38.6956574,9.67465172 30.3253241,1.30434261 19.99996,1.30434261 Z"></path>
                </g>
                <g id="Group-12" transform="translate(12.000000, 12.000000)" fill-rule="nonzero" fill="#8E8E93">
                    <path d="M14.9222745,1.06970412 C14.2466677,0.389948078 13.309739,0 12.351745,0 L12.3284455,0 C11.3700525,0 10.4328047,0.389868297 9.75735744,1.06906578 L6.99237258,3.83652422 C6.84475784,3.98348684 6.7618708,4.18326585 6.76209016,4.39156389 C6.76156268,4.59929725 6.84410196,4.79862113 6.99133527,4.9451673 C7.13767998,5.09246706 7.33690136,5.17505211 7.5445397,5.17449219 C7.75218254,5.17499537 7.95139236,5.09238637 8.09774414,4.9450875 L10.8644047,2.17659175 C11.2577838,1.78305298 11.7815447,1.56633536 12.3395367,1.56633536 C12.8975287,1.56633536 13.4216885,1.78313277 13.8153869,2.17659175 C14.209165,2.57052948 14.425723,3.09500845 14.425723,3.65339942 C14.425723,4.21131164 14.2089256,4.73579061 13.8153869,5.13012731 L10.5370142,8.41057456 C10.1435553,8.80411333 9.61955505,9.02067136 9.06172261,9.02067136 C8.50396998,9.02067136 7.97965059,8.80395373 7.58611183,8.41065436 C7.43849489,8.26271825 7.24204469,8.18140925 7.03075298,8.18140925 C6.6024245,8.18140925 6.25229309,8.53018417 6.25037805,8.96401837 C6.24978438,9.17158473 6.33211025,9.37079263 6.47906461,9.51738239 C7.15467141,10.197298 8.09167987,10.5870865 9.04999305,10.5870865 L9.07257445,10.5870865 C10.0310472,10.5870865 10.9684546,10.1971384 11.6439019,9.51802073 L14.9217159,6.23805225 C15.6043445,5.5584558 15.9938936,4.616181 15.9907019,3.65459633 C15.9931755,2.6912562 15.603387,1.74866223 14.9222745,1.06970412 Z" id="Shape"></path>
                    <path d="M8.44428486,10.8265451 C8.23696649,10.8258683 8.03807932,10.908563 7.89235711,11.0560296 L5.12577639,13.824286 C4.73231742,14.2180641 4.20839698,14.4346222 3.65056456,14.4346222 C3.09273214,14.4346222 2.56857233,14.217745 2.17519316,13.8246052 C1.36401816,13.0102384 1.36401816,11.6851171 2.17487398,10.8711494 L5.45308702,7.59086172 C5.84694495,7.19716336 6.37110477,6.98044575 6.92901698,6.98044575 C7.48708878,6.98044575 8.01100922,7.19716338 8.40359047,7.59014358 C8.55112761,7.73847866 8.74749803,7.82018661 8.95942806,7.82018661 C9.16616636,7.81975809 9.36432232,7.73747761 9.51055789,7.59134047 C9.65831871,7.44474336 9.74110108,7.24500214 9.74036155,7.03685934 C9.74100296,6.82929926 9.65870243,6.63008315 9.51175478,6.48349533 C8.83598839,5.8035797 7.89897994,5.41371142 6.94074655,5.41371142 L6.91792577,5.41371142 C5.95969238,5.41371142 5.02244455,5.8036595 4.34691753,6.48293678 L1.06854491,9.76338402 C0.379532891,10.4524758 3.76875e-05,11.3701744 3.76875e-05,12.3473187 C3.76875e-05,13.324463 0.379532891,14.2419222 1.06790656,14.9302959 C1.74375273,15.6102115 2.68100058,16 3.63939356,16 L3.6614962,16 C4.61988917,16 5.55737639,15.6101317 6.23266402,14.931014 L9.00012247,12.1624385 C9.30437294,11.8561932 9.30293667,11.3593225 8.99685095,11.0544338 C8.85018579,10.9081776 8.65141142,10.8261993 8.44428486,10.8265451 L8.44428486,10.8265451 Z" id="Shape"></path>
                </g>
            </g>
        </g>
    </g>
</svg>