<?xml version="1.0" encoding="UTF-8"?>
<svg width="40px" height="40px" viewBox="0 0 40 40" version="1.1" xmlns="http://www.w3.org/2000/svg" xmlns:xlink="http://www.w3.org/1999/xlink">
    <!-- Generator: Sketch 47.1 (45422) - http://www.bohemiancoding.com/sketch -->
    <title>Group 5</title>
    <desc>Created with Sketch.</desc>
    <defs></defs>
    <g id="11.23" stroke="none" stroke-width="1" fill="none" fill-rule="evenodd">
        <g id="提交弹窗" transform="translate(-740.000000, -315.000000)">
            <g id="Group-15" transform="translate(580.000000, 315.000000)">
                <g id="Group-5" transform="translate(160.000000, 0.000000)">
                    <circle id="Oval-Copy" fill="#FFFFFF" cx="20" cy="20" r="15"></circle>
                    <path d="M40,20 C40,8.95454547 31.0454545,0 20,0 C8.95454547,0 0,8.95454547 0,20 C0,31.0454545 8.95454547,40 20,40 C31.0454545,40 40,31.0454545 40,20 Z M9.2309091,27.1072727 C9.57636363,27.1509091 9.92909094,27.1745455 10.2854546,27.1745455 C12.3563637,27.1781818 14.2618182,26.4309091 15.7727273,25.1763636 C13.8381818,25.1309091 12.2072728,23.7636364 11.6454546,21.8872727 C11.9145455,21.9436364 12.1927273,21.9763636 12.4763637,21.9781818 C12.88,21.98 13.2690909,21.9254546 13.64,21.82 C11.6181819,21.3727273 10.0945455,19.4545455 10.0945455,17.1690909 C10.0945455,17.1490909 10.0945455,17.1290909 10.0945455,17.1090909 C10.6909091,17.4690909 11.3709091,17.6872727 12.0963637,17.72 C10.9127273,16.8636364 10.1327273,15.4090909 10.1327273,13.7727273 C10.1327273,12.9072727 10.3509091,12.1 10.7309091,11.4090909 C12.9109091,14.2909091 16.1672727,16.2036364 19.8381818,16.4418182 C19.7618182,16.0981818 19.7236364,15.74 19.7236364,15.3745454 C19.7236364,12.7909091 21.7018182,10.7290909 24.1418182,10.7690909 C25.4127273,10.7909091 26.5618182,11.3745454 27.3672727,12.2909091 C28.3745455,12.0981818 29.32,11.7272727 30.1727273,11.2090909 C29.8436364,12.2872727 29.1418182,13.1854545 28.2290909,13.7472727 C29.1236364,13.6472727 29.9745454,13.4109091 30.7672727,13.0527273 C30.1745455,13.9745454 29.4254546,14.78 28.5618182,15.4236364 C28.5709091,15.6236364 28.5745455,15.8236364 28.5745455,16.0236364 C28.5745455,22.1581818 24.1290909,29.2327273 16.0018182,29.2290909 C13.5090909,29.2309091 11.1854545,28.4490909 9.2309091,27.1072727 Z" id="icon_twitter" fill="#55ACEE" fill-rule="nonzero"></path>
                </g>
            </g>
        </g>
    </g>
</svg>