<?xml version="1.0" encoding="UTF-8"?>
<svg width="40px" height="40px" viewBox="0 0 40 40" version="1.1" xmlns="http://www.w3.org/2000/svg" xmlns:xlink="http://www.w3.org/1999/xlink">
    <!-- Generator: Sketch 47.1 (45422) - http://www.bohemiancoding.com/sketch -->
    <title>Group 10</title>
    <desc>Created with Sketch.</desc>
    <defs>
        <path d="M19.99996,0.86956 C30.56544,0.86956 39.13044,9.43452 39.13044,20 C39.13044,30.56552 30.56544,39.13048 19.99996,39.13048 C9.4346,39.13048 0.86956,30.56552 0.86956,20 C0.86956,9.43452 9.4346,0.86956 19.99996,0.86956 Z" id="path-1"></path>
    </defs>
    <g id="11.23" stroke="none" stroke-width="1" fill="none" fill-rule="evenodd">
        <g id="提交弹窗" transform="translate(-700.000000, -431.000000)">
            <g id="Group-10" transform="translate(700.000000, 431.000000)">
                <g id="stroke">
                    <use fill-opacity="0" fill="#000000" fill-rule="evenodd" xlink:href="#path-1"></use>
                    <path stroke="#3B5998" stroke-width="0.869565217" d="M19.99996,1.30434261 C9.67468985,1.30434261 1.30434261,9.67467776 1.30434261,20 C1.30434261,30.3253562 9.6746838,38.6956974 19.99996,38.6956974 C30.3253302,38.6956974 38.6956574,30.3253822 38.6956574,20 C38.6956574,9.67465172 30.3253241,1.30434261 19.99996,1.30434261 Z"></path>
                </g>
                <path d="M18.0253322,15.2054957 L18.0253322,17.3605043 L16.5217322,17.3605043 L16.5217322,19.9954609 L18.0253322,19.9954609 L18.0253322,27.826 L21.1141217,27.826 L21.1141217,19.9954609 L23.1867513,19.9954609 C23.1867513,19.9954609 23.3808696,18.7323826 23.4750643,17.350713 L21.125767,17.350713 L21.125767,15.5489217 C21.125767,15.2795652 21.4625183,14.9172522 21.7953983,14.9172522 L23.4782678,14.9172522 L23.4782678,12.1740174 L21.1901704,12.1740174 C17.9489809,12.1740174 18.0253322,14.8116 18.0253322,15.2054957 Z" id="logo" fill="#3B5998"></path>
            </g>
        </g>
    </g>
</svg>