<?xml version="1.0" encoding="UTF-8"?>
<svg width="40px" height="40px" viewBox="0 0 40 40" version="1.1" xmlns="http://www.w3.org/2000/svg" xmlns:xlink="http://www.w3.org/1999/xlink">
    <!-- Generator: Sketch 47.1 (45422) - http://www.bohemiancoding.com/sketch -->
    <title>Group 8</title>
    <desc>Created with Sketch.</desc>
    <defs>
        <path d="M20,0.86956 C30.56544,0.86956 39.13044,9.43452 39.13044,20 C39.13044,30.56552 30.56544,39.13048 20,39.13048 C9.43452,39.13048 0.8696,30.56552 0.8696,20 C0.8696,9.43452 9.43452,0.86956 20,0.86956 Z" id="path-1"></path>
    </defs>
    <g id="11.23" stroke="none" stroke-width="1" fill="none" fill-rule="evenodd">
        <g id="提交弹窗" transform="translate(-620.000000, -431.000000)">
            <g id="Group-8" transform="translate(620.000000, 431.000000)">
                <g id="stroke">
                    <use fill-opacity="0" fill="#000000" fill-rule="evenodd" xlink:href="#path-1"></use>
                    <path stroke="#55ACEE" stroke-width="0.869565217" d="M20,1.30434261 C9.67465172,1.30434261 1.30438261,9.67463589 1.30438261,20 C1.30438261,30.3253981 9.67464567,38.6956974 20,38.6956974 C30.3253362,38.6956974 38.6956574,30.3253762 38.6956574,20 C38.6956574,9.67465776 30.3253302,1.30434261 20,1.30434261 Z"></path>
                </g>
                <path d="M27.3944104,14.1541322 C26.773513,14.5313496 26.0857548,14.8051217 25.3540922,14.95352 C24.7685096,14.3123287 23.9346139,13.9127757 23.0108435,13.9127757 C21.2370696,13.9127757 19.79936,15.3881026 19.79936,17.2061652 C19.79936,17.4640817 19.8280174,17.7155026 19.8825009,17.9564522 C17.2141496,17.8190887 14.8479826,16.507593 13.2642122,14.5150713 C12.9876817,15.0005548 12.8300661,15.5665687 12.8300661,16.1705235 C12.8300661,17.3134609 13.3974365,18.3216643 14.2581339,18.9115478 C13.7317983,18.8936104 13.237047,18.7452122 12.8038574,18.4979235 L12.8038574,18.539433 C12.8038574,20.1348904 13.9109357,21.4656852 15.3790817,21.7693843 C15.1102417,21.8438574 14.8265565,21.8848191 14.5333061,21.8848191 C14.3258939,21.8848191 14.1254261,21.8634539 13.9286122,21.8249652 C14.3374678,23.1330017 15.5229043,24.0856087 16.9275374,24.1130626 C15.8290487,24.9958922 14.4439096,25.5220557 12.9399896,25.5220557 C12.6805617,25.5220557 12.4250939,25.5061843 12.1737965,25.4772278 C13.5952261,26.4109426 15.2822052,26.95628 17.0961339,26.95628 C23.0023304,26.95628 26.2318922,21.937927 26.2318922,17.5855896 L26.221447,17.1585826 C26.8509148,16.69628 27.3962661,16.1161791 27.8261652,15.4560957 C27.2501287,15.7180035 26.6321583,15.8959217 25.9826035,15.9750904 C26.6455878,15.5673983 27.1537113,14.921527 27.3944104,14.1541322 Z" id="logo" fill="#55ACEE"></path>
            </g>
        </g>
    </g>
</svg>