<?xml version="1.0" encoding="UTF-8"?>
<svg width="14px" height="14px" viewBox="0 0 14 14" version="1.1" xmlns="http://www.w3.org/2000/svg" xmlns:xlink="http://www.w3.org/1999/xlink">
    <!-- Generator: Sketch 48.2 (47327) - http://www.bohemiancoding.com/sketch -->
    <title>喇叭</title>
    <desc>Created with Sketch.</desc>
    <defs></defs>
    <g id="首页（新增产品图地图-募集入口）" stroke="none" stroke-width="1" fill="none" fill-rule="evenodd" transform="translate(-458.000000, -111.000000)">
        <g id="Group-8" transform="translate(458.000000, 111.000000)" fill="#FFFFFF" fill-rule="nonzero">
            <g id="喇叭">
                <path d="M13.1550661,3.8 C12.6092511,2.81875 11.8182819,1.9984375 10.8685022,1.4171875 C10.6156388,1.26875 10.2887665,1.3484375 10.1453744,1.6078125 C9.99118943,1.859375 10.0744493,2.1875 10.3257709,2.340625 C11.1167401,2.821875 11.7797357,3.509375 12.2361233,4.3265625 C12.6770925,5.1125 12.9253304,6.025 12.9253304,6.9984375 C12.9253304,7.971875 12.6770925,8.884375 12.2361233,9.6703125 C11.7797357,10.4875 11.1167401,11.175 10.3257709,11.65625 C10.0729075,11.809375 9.98964758,12.1375 10.1453744,12.3890625 C10.2887665,12.6453125 10.6156388,12.728125 10.8685022,12.571875 C11.8136564,12 12.6092511,11.178125 13.1550661,10.2046875 C13.6823789,9.25 13.9876652,8.1578125 13.9876652,6.9984375 C13.9876652,5.8390625 13.6839207,4.74375 13.1550661,3.8 Z" id="Shape"></path>
                <path d="M9.77687225,5.0671875 C9.44845815,4.6484375 9.01982379,4.315625 8.52643172,4.109375 L8.52643172,0.540625 C8.52643172,0.2421875 8.28898678,0.0015625 7.99449339,0.0015625 C7.86343612,0.0015625 7.73854626,0.0515625 7.64757709,0.1359375 L3.37665198,3.453125 L0.539647577,3.453125 C0.242070485,3.453125 0.0123348018,3.7015625 0.0123348018,3.9921875 L0.0123348018,10.009375 C0.0123348018,10.3078125 0.242070485,10.546875 0.539647577,10.546875 L3.37665198,10.546875 L7.6753304,13.8875 C7.90506608,14.0703125 8.24118943,14.021875 8.4215859,13.7875 C8.49713656,13.6875 8.52643172,13.5734375 8.52643172,13.459375 L8.52643172,9.8890625 C9.01982379,9.6828125 9.45,9.35 9.77687225,8.93125 C10.1870044,8.4 10.4321586,7.7328125 10.4321586,7 C10.4321586,6.275 10.1870044,5.5984375 9.77687225,5.0671875 Z M2.98502203,9.4734375 L1.06696035,9.4734375 L1.06696035,4.5328125 L2.98502203,4.5328125 L2.98502203,9.4734375 Z M3.90704846,9.6 L3.87621145,9.58125 L3.87621145,4.41875 L7.46718062,1.63125 L7.46718062,12.3671875 L3.90704846,9.6 Z M9.27577093,8.534375 C9.0722467,8.79375 8.81629956,9.015625 8.52643172,9.1765625 L8.52643172,4.8234375 C8.81629956,4.984375 9.0722467,5.2046875 9.27577093,5.465625 C9.60418502,5.8859375 9.79537445,6.4203125 9.79537445,7 C9.79537445,7.5796875 9.60264317,8.1140625 9.27577093,8.534375 Z" id="Shape"></path>
            </g>
        </g>
    </g>
</svg>