<?xml version="1.0" encoding="UTF-8"?>
<svg width="30px" height="30px" viewBox="0 0 30 30" version="1.1" xmlns="http://www.w3.org/2000/svg" xmlns:xlink="http://www.w3.org/1999/xlink">
    <!-- Generator: Sketch 47.1 (45422) - http://www.bohemiancoding.com/sketch -->
    <title>linkin</title>
    <desc>Created with Sketch.</desc>
    <defs/>
    <g id="1.0" stroke="none" stroke-width="1" fill="none" fill-rule="evenodd">
        <g id="首页-copy" transform="translate(-820.000000, -3404.000000)" fill-rule="nonzero" fill="#FFFFFF">
            <g id="linkin" transform="translate(820.000000, 3404.000000)">
                <path d="M26.67,0 L3.33,0 C1.49317116,0.00549129851 0.00549129851,1.49317116 1.26571346e-14,3.33 L1.26571346e-14,26.67 C0.00549129851,28.5068288 1.49317116,29.9945087 3.33,30 L26.67,30 C28.5068288,29.9945087 29.9945087,28.5068288 30,26.67 L30,3.33 C29.9945087,1.49317116 28.5068288,0.00549129851 26.67,0 Z M10.32,23.33 L6.06999999,23.33 L6.06999999,11 L10.32,11 L10.32,23.33 Z M8.21000001,9.33 C6.95407506,9.38654344 5.88938206,8.41579394 5.82999999,7.16000001 C5.89469257,5.90817835 6.95778854,4.94335177 8.21000001,5.00000001 C9.46221147,4.94335179 10.5253074,5.90817836 10.59,7.16000001 C10.5200293,8.40784715 9.45851706,9.36677629 8.21000001,9.30999999 L8.21000001,9.33 Z M25.27,23.33 L21,23.33 L21,16.66 C21,15.29 20.46,13.92 18.86,13.92 C18.1674085,13.9461662 17.5170619,14.2598159 17.0653829,14.7855095 C16.6137039,15.3112031 16.4015685,16.0013664 16.48,16.69 L16.48,23.32 L12.36,23.32 L12.36,11 L16.51,11 L16.51,12.78 C17.3823373,11.4276383 18.9016797,10.6337818 20.51,10.69 C22.28,10.69 25.3,11.58 25.3,16.4 L25.27,23.33 Z" id="Shape"/>
            </g>
        </g>
    </g>
</svg>