<?xml version="1.0" encoding="UTF-8"?>
<svg width="23px" height="23px" viewBox="0 0 23 23" version="1.1" xmlns="http://www.w3.org/2000/svg" xmlns:xlink="http://www.w3.org/1999/xlink">
    <!-- Generator: Sketch 48.1 (47250) - http://www.bohemiancoding.com/sketch -->
    <title>Group 7 Copy</title>
    <desc>Created with Sketch.</desc>
    <defs></defs>
    <g id="Register_Mobile" stroke="none" stroke-width="1" fill="none" fill-rule="evenodd" transform="translate(-173.000000, -6408.000000)">
        <g id="Group-2" transform="translate(35.000000, 6373.000000)">
            <g id="Group-7-Copy" transform="translate(138.000000, 35.000000)">
                <circle id="Oval-Copy-2" fill="#FFFFFF" cx="11.5" cy="11.5" r="8.625"></circle>
                <path d="M11.485281,0 C5.13799896,0 0,5.13814256 0,11.485281 C0,17.8324194 5.13814256,22.9705619 11.485281,22.9705619 C17.832563,22.9705619 22.9705619,17.8324194 22.9705619,11.485281 C22.9705619,5.13799896 17.8324194,3.40114109e-16 11.485281,0 Z M14.5674724,11.4249927 L12.5735328,11.4249927 L12.5735328,18.6183205 L9.61153486,18.6183205 L9.61153486,11.4249927 L8.10011655,11.4249927 L8.10011655,8.94702393 L9.61153486,8.94702393 L9.61153486,7.43560562 C9.61153486,5.44166597 10.4578918,4.23233507 12.8148054,4.23233507 L14.8087451,4.23233507 L14.8087451,6.71030385 L13.5995099,6.71030385 C12.6932477,6.71030385 12.6328398,7.0733257 12.6328398,7.67697399 L12.6328398,8.88620916 L14.8688418,8.88620916 L14.5667544,11.4250884 L14.5674724,11.4249927 Z" id="icon_facebook" fill="#3B5998" fill-rule="nonzero"></path>
            </g>
        </g>
    </g>
</svg>