<?xml version="1.0" encoding="UTF-8"?>
<svg width="23px" height="23px" viewBox="0 0 23 23" version="1.1" xmlns="http://www.w3.org/2000/svg" xmlns:xlink="http://www.w3.org/1999/xlink">
    <!-- Generator: Sketch 48.1 (47250) - http://www.bohemiancoding.com/sketch -->
    <title>Group 3 Copy</title>
    <desc>Created with Sketch.</desc>
    <defs></defs>
    <g id="Register_Mobile" stroke="none" stroke-width="1" fill="none" fill-rule="evenodd" transform="translate(-35.000000, -6408.000000)">
        <g id="Group-2" transform="translate(35.000000, 6373.000000)">
            <g id="Group-3-Copy" transform="translate(0.000000, 35.000000)">
                <circle id="Oval" fill="#FFFFFF" cx="11.5" cy="11.5" r="8.625"></circle>
                <path d="M15.2605,16.7752143 L17.1473214,7.88078572 C17.3140714,7.0979643 16.86475,6.78992858 16.3513571,6.98214286 L5.26207142,11.2560357 C4.50471428,11.5509286 4.51785714,11.9747857 5.13392858,12.167 L7.97032142,13.0525 L14.5548929,8.90675 C14.8629286,8.70139286 15.1455,8.81721428 14.9146786,9.02257142 L9.58853572,13.8353214 L9.38317858,16.7620714 C9.67807144,16.7620714 9.80703572,16.6339286 9.96064286,16.4795 L11.3463929,15.1446786 L14.2213929,17.2623214 C14.7479286,17.5572143 15.1200357,17.4036071 15.2613214,16.7743929 L15.2605,16.7752143 Z M23,11.5 C23,17.8529286 17.8529286,23 11.5,23 C5.14707142,23 0,17.8529286 0,11.5 C0,5.14707142 5.14707142,0 11.5,0 C17.8529286,0 23,5.14707142 23,11.5 Z" id="icon_telegram" fill="#2CA4D7" fill-rule="nonzero"></path>
            </g>
        </g>
    </g>
</svg>