<?xml version="1.0" encoding="UTF-8"?>
<svg width="23px" height="23px" viewBox="0 0 23 23" version="1.1" xmlns="http://www.w3.org/2000/svg" xmlns:xlink="http://www.w3.org/1999/xlink">
    <!-- Generator: Sketch 48.1 (47250) - http://www.bohemiancoding.com/sketch -->
    <title>Group 4 Copy</title>
    <desc>Created with Sketch.</desc>
    <defs></defs>
    <g id="Register_Mobile" stroke="none" stroke-width="1" fill="none" fill-rule="evenodd" transform="translate(-81.000000, -6408.000000)">
        <g id="Group-2" transform="translate(35.000000, 6373.000000)">
            <g id="Group-4-Copy" transform="translate(46.000000, 35.000000)">
                <circle id="Oval" fill="#FFFFFF" cx="11.5" cy="11.5" r="8.625"></circle>
                <path d="M11.5,23 C5.14855,23 0,17.85145 0,11.5 C0,5.14855 5.14855,0 11.5,0 C17.85145,0 23,5.14855 23,11.5 C23,17.85145 17.85145,23 11.5,23 Z M17.14765,11.303925 C17.02115,11.303925 16.888325,11.326925 16.74975,11.372925 L15.33295,11.8565 L14.426175,9.126975 L15.7826,8.660075 C16.0333378,8.57540511 16.2548735,8.42126726 16.421425,8.2156 C16.5945,8.00515 16.68075,7.77055 16.68075,7.511225 C16.68075,7.171975 16.558275,6.887925 16.3139,6.660225 C16.0747845,6.4349764 15.7568329,6.3125444 15.4284,6.31925 C15.3019,6.31925 15.1777,6.3365 15.05695,6.371 L13.6574,6.84595 L13.1997,5.455025 C13.1157404,5.20496288 12.9536812,4.98848074 12.7374,4.837475 C12.5227987,4.68142209 12.2638606,4.59819917 11.998525,4.6 C11.659275,4.6 11.366025,4.723625 11.12165,4.97145 C10.877275,5.2187 10.7548,5.5131 10.7548,5.85235 C10.7548,5.9846 10.7778,6.1203 10.8238,6.258875 L11.290125,7.6406 L8.61235,8.54795 L8.14545,7.16565 C8.06465533,6.91398291 7.90395768,6.69554717 7.68775,6.5435 C7.47398509,6.38976325 7.21677043,6.30818773 6.953475,6.310625 C6.608475,6.310625 6.314075,6.4331 6.072575,6.677475 C5.8305,6.922425 5.70975,7.217975 5.70975,7.562975 C5.70975,7.695225 5.73275,7.830925 5.77875,7.968925 L6.23645,9.343175 L4.880025,9.8003 C4.627025,9.88655 4.421175,10.0395 4.262475,10.258575 C4.10435,10.477075 4.025,10.722025 4.025,10.99285 C4.025,11.33785 4.142875,11.62765 4.3792,11.8611 C4.61495,12.093975 4.9059,12.2107 5.251475,12.2107 C5.377975,12.2107 5.51655,12.1877 5.666625,12.1417 L7.01385,11.675375 L7.9212,14.379025 L6.5734,14.836725 C6.3204,14.922975 6.113975,15.075925 5.95585,15.295 C5.79715,15.5135 5.718375,15.75845 5.718375,16.029275 C5.718375,16.380025 5.8351,16.67155 6.067975,16.90155 C6.301425,17.13155 6.593525,17.247125 6.94485,17.247125 C7.0656,17.247125 7.20935,17.22125 7.376675,17.1695 L8.6986,16.7118 L9.17355,18.119975 C9.2598,18.378725 9.41275,18.585725 9.631825,18.74155 C9.850325,18.8968 10.095275,18.975 10.3661,18.975 C10.7111,18.975 11.004925,18.851375 11.247,18.60355 C11.4885,18.3563 11.609825,18.0619 11.609825,17.72265 C11.609825,17.5904 11.586825,17.4547 11.540825,17.316125 L11.065875,15.899325 L13.74365,14.983925 L14.2186,16.40935 C14.30485,16.6681 14.459525,16.875675 14.6809,17.0315 C14.90285,17.18675 15.14895,17.264375 15.419775,17.264375 C15.759025,17.264375 16.049975,17.14075 16.29205,16.892925 C16.53355,16.645675 16.654875,16.35185 16.654875,16.012025 C16.654875,15.862525 16.63475,15.726825 16.5945,15.606075 L16.110925,14.162825 L17.596725,13.653375 C18.13205,13.463625 18.4,13.0893 18.4,12.5304 C18.4,12.17965 18.2804,11.8864 18.041775,11.653525 C17.802575,11.420075 17.504725,11.303925 17.14765,11.303925 Z M10.07285,13.225 L9.2,10.654175 L11.77715,9.775 L12.65,12.3625 L10.07285,13.225 Z" id="icon_slack" fill="#CE1E5B" fill-rule="nonzero"></path>
            </g>
        </g>
    </g>
</svg>