<?xml version="1.0" encoding="UTF-8"?>
<svg width="23px" height="23px" viewBox="0 0 23 23" version="1.1" xmlns="http://www.w3.org/2000/svg" xmlns:xlink="http://www.w3.org/1999/xlink">
    <!-- Generator: Sketch 48.1 (47250) - http://www.bohemiancoding.com/sketch -->
    <title>Group 5 Copy</title>
    <desc>Created with Sketch.</desc>
    <defs></defs>
    <g id="Register_Mobile" stroke="none" stroke-width="1" fill="none" fill-rule="evenodd" transform="translate(-127.000000, -6408.000000)">
        <g id="Group-2" transform="translate(35.000000, 6373.000000)">
            <g id="Group-5-Copy" transform="translate(92.000000, 35.000000)">
                <circle id="Oval-Copy" fill="#FFFFFF" cx="11.5" cy="11.5" r="8.625"></circle>
                <path d="M23,11.5 C23,5.14886364 17.8511364,0 11.5,0 C5.14886364,0 0,5.14886364 0,11.5 C0,17.8511364 5.14886364,23 11.5,23 C17.8511364,23 23,17.8511364 23,11.5 Z M5.30777273,15.5866818 C5.50640909,15.6117727 5.70922729,15.6253636 5.91413638,15.6253636 C7.10490911,15.6274546 8.20054547,15.1977727 9.0693182,14.4764091 C7.95695456,14.4502727 7.01918184,13.6640909 6.69613638,12.5851818 C6.85086364,12.6175909 7.0108182,12.6364091 7.17390911,12.6374546 C7.40600002,12.6385 7.62972729,12.6071364 7.84300002,12.5465 C6.68045458,12.2893182 5.80436367,11.1863636 5.80436367,9.87222727 C5.80436367,9.86072727 5.80436367,9.84922727 5.80436367,9.83772727 C6.14727276,10.0447273 6.53827276,10.1701818 6.95540911,10.189 C6.27481818,9.69659091 5.82631818,8.86022727 5.82631818,7.91931818 C5.82631818,7.42168182 5.95177273,6.9575 6.17027273,6.56022727 C7.42377273,8.21727271 9.29618182,9.31709091 11.4069546,9.45404544 C11.3630455,9.25645453 11.3410909,9.0505 11.3410909,8.84036362 C11.3410909,7.35477271 12.4785455,6.16922727 13.8815455,6.19222727 C14.6123182,6.20477271 15.2730455,6.54036362 15.7361818,7.06727271 C16.3153636,6.95645453 16.859,6.7431818 17.3493182,6.44522727 C17.1600909,7.06518182 16.7565454,7.58163636 16.2317273,7.90468182 C16.7460909,7.84718182 17.2353636,7.71127273 17.6911818,7.50531818 C17.3503636,8.03536362 16.9196364,8.4985 16.4230455,8.86859091 C16.4282727,8.98359091 16.4303636,9.09859091 16.4303636,9.21359091 C16.4303636,12.7409546 13.8742273,16.8088182 9.20104547,16.8067273 C7.76772727,16.8077727 6.43163636,16.3582273 5.30777273,15.5866818 Z" id="icon_twitter" fill="#55ACEE" fill-rule="nonzero"></path>
            </g>
        </g>
    </g>
</svg>